<svg fill="none" height="256" viewBox="0 0 256 256" width="256" xmlns="http://www.w3.org/2000/svg" xmlns:xlink="http://www.w3.org/1999/xlink"><clipPath id="a"><path d="m0 0h256v256h-256z"/></clipPath><g clip-path="url(#a)" stroke="#000" stroke-linecap="round" stroke-linejoin="round" stroke-width="21.3333"><path d="m128 234.667c58.91 0 106.667-47.757 106.667-106.667 0-58.9104-47.757-106.6667-106.667-106.6667-58.9104 0-106.6667 47.7563-106.6667 106.6667 0 58.91 47.7563 106.667 106.6667 106.667z"/><path d="m157.036 88.1703c5.211-1.7371 7.817-2.6056 9.549-1.9877 1.508.5377 2.695 1.7243 3.232 3.2321.618 1.7327-.25 4.3383-1.987 9.5495l-15.867 47.6018c-.495 1.484-.743 2.226-1.164 2.842-.373.546-.845 1.018-1.391 1.391-.616.422-1.358.669-2.842 1.164l-47.6018 15.867c-5.2112 1.737-7.8168 2.605-9.5495 1.987-1.5078-.537-2.6944-1.724-3.2321-3.232-.6179-1.732.2506-4.338 1.9877-9.549l15.8667-47.602c.495-1.484.743-2.226 1.164-2.842.373-.546.845-1.018 1.391-1.391.616-.421 1.358-.669 2.842-1.164z"/></g></svg>